<svg width="23" height="21" viewBox="0 0 23 21" fill="none" xmlns="http://www.w3.org/2000/svg">
<path d="M13.1173 3.64725L13.2929 3.67759V3.49944V3.36C13.2929 2.87572 13.1048 2.41062 12.7689 2.06719C12.433 1.72364 11.9766 1.53 11.5 1.53C11.0234 1.53 10.567 1.72364 10.2311 2.06719C9.89524 2.41062 9.70714 2.87572 9.70714 3.36V3.49944V3.67759L9.88269 3.64725C10.9533 3.46219 12.0467 3.46219 13.1173 3.64725ZM8.2653 4.07394L8.36429 4.03814V3.93288V3.36C8.36429 2.50759 8.69545 1.69074 9.28389 1.08899C9.87223 0.487362 10.6695 0.15 11.5 0.15C12.3305 0.15 13.1278 0.487362 13.7161 1.08899C14.3045 1.69074 14.6357 2.50759 14.6357 3.36V3.93288V4.03815L14.7347 4.07394C16.6274 4.75823 18.2665 6.02609 19.4259 7.70347C20.5854 9.38088 21.2079 11.3851 21.2071 13.4399V13.44C21.2071 13.6241 21.1356 13.7999 21.0093 13.9291C20.8831 14.0581 20.7127 14.13 20.5357 14.13H2.46429C2.28731 14.13 2.11688 14.0581 1.99069 13.9291C1.86439 13.7999 1.79286 13.6241 1.79286 13.44C1.79286 9.11529 4.49658 5.43687 8.2653 4.07394ZM19.6732 12.75H19.8387L19.8225 12.5853C19.6153 10.4773 18.6498 8.52242 17.1122 7.10024C15.5746 5.67798 13.5746 4.88997 11.5 4.89C9.42544 4.88997 7.4254 5.67798 5.88777 7.10024C4.35023 8.52242 3.38469 10.4773 3.17751 12.5853L3.16132 12.75H3.32679H19.6732ZM11.5 6.87H11.5C12.5347 6.86984 13.5541 7.12548 14.4716 7.61531C15.3891 8.10516 16.1776 8.81477 16.7695 9.68396L16.7695 9.68397L16.7713 9.68654C16.8242 9.76074 16.8621 9.84516 16.8828 9.93489C16.9035 10.0246 16.9065 10.1177 16.8916 10.2087C16.8767 10.2996 16.8442 10.3865 16.7962 10.4641C16.7482 10.5418 16.6856 10.6086 16.6124 10.6609C16.5391 10.7131 16.4566 10.7498 16.3696 10.7689C16.2827 10.7879 16.193 10.7891 16.1056 10.7722C16.0183 10.7553 15.9349 10.7208 15.8604 10.6704C15.786 10.6201 15.7218 10.5549 15.672 10.4785L15.672 10.4785L15.6703 10.4759C14.752 9.13045 13.2266 8.25 11.5 8.25C11.323 8.25 11.1526 8.17814 11.0264 8.0491C10.9001 7.91994 10.8286 7.74407 10.8286 7.56C10.8286 7.37593 10.9001 7.20006 11.0264 7.0709C11.1526 6.94186 11.323 6.87 11.5 6.87ZM0.829018 16.803C1.2633 16.3589 1.85159 16.11 2.46429 16.11H20.5357C21.1484 16.11 21.7367 16.3589 22.171 16.803C22.6054 17.2472 22.85 17.8504 22.85 18.48C22.85 19.1096 22.6054 19.7128 22.171 20.157C21.7367 20.6011 21.1484 20.85 20.5357 20.85H2.46429C1.85159 20.85 1.2633 20.6011 0.829018 20.157C0.394622 19.7128 0.15 19.1096 0.15 18.48C0.15 17.8504 0.394622 17.2472 0.829018 16.803ZM1.7762 17.7812C1.59441 17.9671 1.49286 18.2185 1.49286 18.48C1.49286 18.7415 1.59441 18.9929 1.7762 19.1788C1.95811 19.3649 2.20555 19.47 2.46429 19.47H20.5357C20.7944 19.47 21.0419 19.3649 21.2238 19.1788C21.4056 18.9929 21.5071 18.7415 21.5071 18.48C21.5071 18.2185 21.4056 17.9671 21.2238 17.7812C21.0419 17.5951 20.7945 17.49 20.5357 17.49H2.46429C2.20555 17.49 1.95811 17.5951 1.7762 17.7812Z" fill="black" stroke="white" stroke-width="0.3"/>
</svg>
