<svg width="23" height="21" viewBox="0 0 23 21" fill="none" xmlns="http://www.w3.org/2000/svg">
<path d="M11.5 1.68C11.9357 1.68 12.3536 1.857 12.6617 2.17206C12.9698 2.48712 13.1429 2.91444 13.1429 3.36V3.49944C12.0553 3.31146 10.9447 3.31146 9.85714 3.49944V3.36C9.85714 2.91444 10.0302 2.48712 10.3383 2.17206C10.6464 1.857 11.0643 1.68 11.5 1.68ZM8.21429 3.36V3.93288C4.38643 5.3172 1.64286 9.05184 1.64286 13.44C1.64286 13.6628 1.7294 13.8764 1.88345 14.034C2.0375 14.1915 2.24643 14.28 2.46429 14.28H20.5357C20.7536 14.28 20.9625 14.1915 21.1166 14.034C21.2706 13.8764 21.3571 13.6628 21.3571 13.44C21.3579 11.3549 20.7263 9.32087 19.5493 7.61818C18.3724 5.91548 16.7081 4.62791 14.7857 3.93288V3.36C14.7857 2.46887 14.4395 1.61424 13.8234 0.984121C13.2072 0.353999 12.3714 0 11.5 0C10.6286 0 9.79284 0.353999 9.17665 0.984121C8.56046 1.61424 8.21429 2.46887 8.21429 3.36ZM11.5 5.04C13.5364 5.03997 15.5002 5.81345 17.0104 7.21036C18.5206 8.60727 19.4696 10.528 19.6732 12.6H3.32679C3.53042 10.528 4.4794 8.60727 5.98962 7.21036C7.49984 5.81345 9.46363 5.03997 11.5 5.04ZM11.5 6.72C11.2821 6.72 11.0732 6.8085 10.9192 6.96603C10.7651 7.12356 10.6786 7.33722 10.6786 7.56C10.6786 7.78278 10.7651 7.99644 10.9192 8.15397C11.0732 8.3115 11.2821 8.4 11.5 8.4C13.1741 8.4 14.6543 9.25344 15.5464 10.5605C15.607 10.6534 15.6852 10.733 15.7764 10.7947C15.8675 10.8563 15.9698 10.8988 16.0772 10.9195C16.1846 10.9402 16.2949 10.9388 16.4018 10.9154C16.5086 10.8919 16.6098 10.8469 16.6995 10.783C16.7891 10.7191 16.8654 10.6375 16.9238 10.543C16.9822 10.4486 17.0216 10.3432 17.0396 10.2329C17.0577 10.1227 17.0541 10.0099 17.029 9.90117C17.0039 9.79241 16.9578 9.68985 16.8935 9.59952C16.288 8.71051 15.4814 7.98438 14.5423 7.48299C13.6031 6.98161 12.5594 6.71984 11.5 6.72ZM2.46429 15.96C1.81072 15.96 1.18392 16.2255 0.721773 16.6981C0.259629 17.1707 0 17.8117 0 18.48C0 19.1483 0.259629 19.7893 0.721773 20.2619C1.18392 20.7345 1.81072 21 2.46429 21H20.5357C21.1893 21 21.8161 20.7345 22.2782 20.2619C22.7404 19.7893 23 19.1483 23 18.48C23 17.8117 22.7404 17.1707 22.2782 16.6981C21.8161 16.2255 21.1893 15.96 20.5357 15.96H2.46429ZM1.64286 18.48C1.64286 18.2572 1.7294 18.0436 1.88345 17.886C2.0375 17.7285 2.24643 17.64 2.46429 17.64H20.5357C20.7536 17.64 20.9625 17.7285 21.1166 17.886C21.2706 18.0436 21.3571 18.2572 21.3571 18.48C21.3571 18.7028 21.2706 18.9164 21.1166 19.074C20.9625 19.2315 20.7536 19.32 20.5357 19.32H2.46429C2.24643 19.32 2.0375 19.2315 1.88345 19.074C1.7294 18.9164 1.64286 18.7028 1.64286 18.48Z" fill="black"/>
</svg>
