<svg width="23" height="25" viewBox="0 0 23 25" fill="none" xmlns="http://www.w3.org/2000/svg">
<path d="M14.755 4H5.245C4.086 4 3.507 4 3.039 4.163C2.59793 4.31972 2.19885 4.57586 1.87267 4.91158C1.54649 5.24731 1.30195 5.6536 1.158 6.099C1 6.581 1 7.177 1 8.37V22.374C1 23.232 1.985 23.688 2.608 23.118C2.78279 22.9565 3.01202 22.8668 3.25 22.8668C3.48798 22.8668 3.71721 22.9565 3.892 23.118L4.375 23.56C4.68121 23.8432 5.08293 24.0004 5.5 24.0004C5.91707 24.0004 6.31879 23.8432 6.625 23.56C6.93121 23.2768 7.33293 23.1196 7.75 23.1196C8.16707 23.1196 8.56879 23.2768 8.875 23.56C9.18121 23.8432 9.58293 24.0004 10 24.0004C10.4171 24.0004 10.8188 23.8432 11.125 23.56C11.4312 23.2768 11.8329 23.1196 12.25 23.1196C12.6671 23.1196 13.0688 23.2768 13.375 23.56C13.6812 23.8432 14.0829 24.0004 14.5 24.0004C14.9171 24.0004 15.3188 23.8432 15.625 23.56L16.108 23.118C16.2828 22.9565 16.512 22.8668 16.75 22.8668C16.988 22.8668 17.2172 22.9565 17.392 23.118C18.015 23.688 19 23.232 19 22.374V8.37C19 7.177 19 6.58 18.842 6.1C18.6982 5.65441 18.4537 5.24792 18.1275 4.91202C17.8013 4.57612 17.4022 4.31982 16.961 4.163C16.493 4 15.914 4 14.755 4Z" stroke="black" stroke-width="1.1"/>
<path d="M8.5 13H15M5 13H5.5M5 9.5H5.5M5 16.5H5.5M8.5 9.5H15M8.5 16.5H15" stroke="black" stroke-width="1.1" stroke-linecap="round"/>
<circle cx="18" cy="5" r="5" fill="#1B5D35"/>
</svg>
