<svg width="20" height="22" viewBox="0 0 20 22" fill="none" xmlns="http://www.w3.org/2000/svg">
<path d="M14.755 1H5.245C4.086 1 3.507 1 3.039 1.163C2.59793 1.31972 2.19885 1.57586 1.87267 1.91158C1.54649 2.24731 1.30195 2.6536 1.158 3.099C1 3.581 1 4.177 1 5.37V19.374C1 20.232 1.985 20.688 2.608 20.118C2.78279 19.9565 3.01202 19.8668 3.25 19.8668C3.48798 19.8668 3.71721 19.9565 3.892 20.118L4.375 20.56C4.68121 20.8432 5.08293 21.0004 5.5 21.0004C5.91707 21.0004 6.31879 20.8432 6.625 20.56C6.93121 20.2768 7.33293 20.1196 7.75 20.1196C8.16707 20.1196 8.56879 20.2768 8.875 20.56C9.18121 20.8432 9.58293 21.0004 10 21.0004C10.4171 21.0004 10.8188 20.8432 11.125 20.56C11.4312 20.2768 11.8329 20.1196 12.25 20.1196C12.6671 20.1196 13.0688 20.2768 13.375 20.56C13.6812 20.8432 14.0829 21.0004 14.5 21.0004C14.9171 21.0004 15.3188 20.8432 15.625 20.56L16.108 20.118C16.2828 19.9565 16.512 19.8668 16.75 19.8668C16.988 19.8668 17.2172 19.9565 17.392 20.118C18.015 20.688 19 20.232 19 19.374V5.37C19 4.177 19 3.58 18.842 3.1C18.6982 2.65441 18.4537 2.24792 18.1275 1.91202C17.8013 1.57612 17.4022 1.31982 16.961 1.163C16.493 1 15.914 1 14.755 1Z" stroke="black" stroke-width="1.1"/>
<path d="M8.5 10H15M5 10H5.5M5 6.5H5.5M5 13.5H5.5M8.5 6.5H15M8.5 13.5H15" stroke="black" stroke-width="1.1" stroke-linecap="round"/>
</svg>
